<mxfile host="app.diagrams.net" modified="2023-09-24T16:34:36.994Z" agent="Mozilla/5.0 (Windows NT 10.0; Win64; x64) AppleWebKit/537.36 (KHTML, like Gecko) Chrome/116.0.0.0 Safari/537.36" etag="A3biZnD1mutgMkAucKSv" version="21.8.2" type="github">
  <diagram name="第 1 页" id="Q7SS0ckkUcSd-P_3bl_g">
    <mxGraphModel dx="1311" dy="680" grid="0" gridSize="10" guides="1" tooltips="1" connect="1" arrows="1" fold="1" page="1" pageScale="1" pageWidth="827" pageHeight="1169" background="#000000" math="0" shadow="0">
      <root>
        <mxCell id="0" />
        <mxCell id="1" parent="0" />
        <mxCell id="6Dqu60EFzSTodjDfhQKl-1" value="&lt;font style=&quot;font-size: 18px;&quot;&gt;Server1&lt;/font&gt;" style="rounded=0;whiteSpace=wrap;html=1;verticalAlign=top;" vertex="1" parent="1">
          <mxGeometry x="84" y="417" width="321" height="312" as="geometry" />
        </mxCell>
        <mxCell id="6Dqu60EFzSTodjDfhQKl-25" style="edgeStyle=orthogonalEdgeStyle;rounded=0;orthogonalLoop=1;jettySize=auto;html=1;exitX=0.5;exitY=1;exitDx=0;exitDy=0;entryX=0.75;entryY=0;entryDx=0;entryDy=0;strokeColor=#FFFFFF;" edge="1" parent="1" source="Rtw2Mw8w-L1hEYjC5oc2-6" target="6Dqu60EFzSTodjDfhQKl-1">
          <mxGeometry relative="1" as="geometry" />
        </mxCell>
        <mxCell id="6Dqu60EFzSTodjDfhQKl-26" style="edgeStyle=orthogonalEdgeStyle;rounded=0;orthogonalLoop=1;jettySize=auto;html=1;exitX=0.5;exitY=1;exitDx=0;exitDy=0;entryX=0.25;entryY=0;entryDx=0;entryDy=0;strokeColor=#FFFFFF;" edge="1" parent="1" source="Rtw2Mw8w-L1hEYjC5oc2-6" target="6Dqu60EFzSTodjDfhQKl-3">
          <mxGeometry relative="1" as="geometry" />
        </mxCell>
        <mxCell id="Rtw2Mw8w-L1hEYjC5oc2-6" value="&lt;h1 style=&quot;font-size: 24px;&quot;&gt;Server&lt;/h1&gt;" style="rounded=0;whiteSpace=wrap;html=1;align=center;verticalAlign=top;" parent="1" vertex="1">
          <mxGeometry x="85.5" y="232" width="656" height="137" as="geometry" />
        </mxCell>
        <mxCell id="MLBCKs6qhWt3k2Kgl3a6-89" value="&lt;font style=&quot;font-size: 24px;&quot;&gt;K8S&lt;/font&gt;" style="rounded=0;whiteSpace=wrap;html=1;" parent="1" vertex="1">
          <mxGeometry x="102" y="288" width="622" height="60" as="geometry" />
        </mxCell>
        <mxCell id="MLBCKs6qhWt3k2Kgl3a6-90" value="" style="group" parent="1" vertex="1" connectable="0">
          <mxGeometry x="84" y="35" width="659" height="122" as="geometry" />
        </mxCell>
        <mxCell id="MLBCKs6qhWt3k2Kgl3a6-28" style="edgeStyle=orthogonalEdgeStyle;rounded=0;orthogonalLoop=1;jettySize=auto;html=1;entryX=0.25;entryY=0;entryDx=0;entryDy=0;fontSize=12;labelBackgroundColor=#000000;fontColor=#FFFFFF;strokeColor=#FFFFFF;" parent="MLBCKs6qhWt3k2Kgl3a6-90" target="Rtw2Mw8w-L1hEYjC5oc2-6" edge="1">
          <mxGeometry relative="1" as="geometry">
            <mxPoint x="165" y="122" as="sourcePoint" />
          </mxGeometry>
        </mxCell>
        <mxCell id="MLBCKs6qhWt3k2Kgl3a6-37" value="&lt;font style=&quot;font-size: 18px;&quot;&gt;Request&lt;/font&gt;" style="edgeLabel;html=1;align=center;verticalAlign=middle;resizable=0;points=[];" parent="MLBCKs6qhWt3k2Kgl3a6-28" vertex="1" connectable="0">
          <mxGeometry x="-0.2603" y="-1" relative="1" as="geometry">
            <mxPoint x="1" y="9" as="offset" />
          </mxGeometry>
        </mxCell>
        <mxCell id="MLBCKs6qhWt3k2Kgl3a6-23" value="&lt;font style=&quot;font-size: 24px;&quot;&gt;Client&lt;/font&gt;" style="rounded=0;whiteSpace=wrap;html=1;verticalAlign=top;align=center;" parent="MLBCKs6qhWt3k2Kgl3a6-90" vertex="1">
          <mxGeometry width="659" height="122" as="geometry" />
        </mxCell>
        <mxCell id="MLBCKs6qhWt3k2Kgl3a6-29" style="edgeStyle=orthogonalEdgeStyle;rounded=0;orthogonalLoop=1;jettySize=auto;html=1;exitX=0.75;exitY=0;exitDx=0;exitDy=0;entryX=0.75;entryY=1;entryDx=0;entryDy=0;labelBackgroundColor=#000000;fontColor=#FFFFFF;strokeColor=#FFFFFF;" parent="MLBCKs6qhWt3k2Kgl3a6-90" source="Rtw2Mw8w-L1hEYjC5oc2-6" target="MLBCKs6qhWt3k2Kgl3a6-23" edge="1">
          <mxGeometry relative="1" as="geometry" />
        </mxCell>
        <mxCell id="MLBCKs6qhWt3k2Kgl3a6-38" value="&lt;font style=&quot;font-size: 18px;&quot;&gt;Response&lt;/font&gt;" style="edgeLabel;html=1;align=center;verticalAlign=middle;resizable=0;points=[];" parent="MLBCKs6qhWt3k2Kgl3a6-29" vertex="1" connectable="0">
          <mxGeometry x="-0.1293" y="-2" relative="1" as="geometry">
            <mxPoint x="-1" y="-4" as="offset" />
          </mxGeometry>
        </mxCell>
        <mxCell id="MLBCKs6qhWt3k2Kgl3a6-25" value="&lt;font style=&quot;font-size: 24px;&quot;&gt;Electron&lt;/font&gt;" style="rounded=0;whiteSpace=wrap;html=1;" parent="MLBCKs6qhWt3k2Kgl3a6-90" vertex="1">
          <mxGeometry x="11" y="47" width="308.5" height="60" as="geometry" />
        </mxCell>
        <mxCell id="MLBCKs6qhWt3k2Kgl3a6-26" value="&lt;font style=&quot;font-size: 25px;&quot;&gt;Web&lt;/font&gt;" style="rounded=0;whiteSpace=wrap;html=1;" parent="MLBCKs6qhWt3k2Kgl3a6-90" vertex="1">
          <mxGeometry x="341.5" y="47" width="312" height="60" as="geometry" />
        </mxCell>
        <mxCell id="6Dqu60EFzSTodjDfhQKl-2" value="" style="group" vertex="1" connectable="0" parent="1">
          <mxGeometry x="97.5" y="460" width="293" height="254" as="geometry" />
        </mxCell>
        <mxCell id="MLBCKs6qhWt3k2Kgl3a6-54" value="&lt;font style=&quot;font-size: 18px;&quot;&gt;Docker&lt;/font&gt;" style="rounded=0;whiteSpace=wrap;html=1;strokeWidth=2;verticalAlign=top;" parent="6Dqu60EFzSTodjDfhQKl-2" vertex="1">
          <mxGeometry width="293" height="254" as="geometry" />
        </mxCell>
        <mxCell id="MLBCKs6qhWt3k2Kgl3a6-57" value="&lt;font style=&quot;font-size: 18px;&quot;&gt;Nginx&lt;/font&gt;" style="rounded=0;whiteSpace=wrap;html=1;" parent="6Dqu60EFzSTodjDfhQKl-2" vertex="1">
          <mxGeometry x="14" y="35.73000000000002" width="262.21" height="46.61" as="geometry" />
        </mxCell>
        <mxCell id="MLBCKs6qhWt3k2Kgl3a6-59" value="&lt;font style=&quot;font-size: 18px;&quot;&gt;RESTful API Server&lt;/font&gt;" style="rounded=0;whiteSpace=wrap;html=1;" parent="6Dqu60EFzSTodjDfhQKl-2" vertex="1">
          <mxGeometry x="157.2239459029435" y="107.96941896024464" width="121.00238663484487" height="46.60550458715596" as="geometry" />
        </mxCell>
        <mxCell id="MLBCKs6qhWt3k2Kgl3a6-61" value="&lt;font style=&quot;font-size: 18px;&quot;&gt;AI Server&lt;/font&gt;" style="rounded=0;whiteSpace=wrap;html=1;" parent="6Dqu60EFzSTodjDfhQKl-2" vertex="1">
          <mxGeometry x="15.382259347653132" y="107.96941896024464" width="121.00238663484487" height="46.60550458715596" as="geometry" />
        </mxCell>
        <mxCell id="MLBCKs6qhWt3k2Kgl3a6-55" style="edgeStyle=orthogonalEdgeStyle;rounded=0;orthogonalLoop=1;jettySize=auto;html=1;exitX=0.119;exitY=1.033;exitDx=0;exitDy=0;entryX=0.25;entryY=0;entryDx=0;entryDy=0;exitPerimeter=0;" parent="6Dqu60EFzSTodjDfhQKl-2" source="MLBCKs6qhWt3k2Kgl3a6-57" target="MLBCKs6qhWt3k2Kgl3a6-61" edge="1">
          <mxGeometry relative="1" as="geometry" />
        </mxCell>
        <mxCell id="MLBCKs6qhWt3k2Kgl3a6-62" style="edgeStyle=orthogonalEdgeStyle;rounded=0;orthogonalLoop=1;jettySize=auto;html=1;entryX=0.75;entryY=1;entryDx=0;entryDy=0;" parent="6Dqu60EFzSTodjDfhQKl-2" source="MLBCKs6qhWt3k2Kgl3a6-64" target="MLBCKs6qhWt3k2Kgl3a6-61" edge="1">
          <mxGeometry relative="1" as="geometry">
            <Array as="points">
              <mxPoint x="106.13404932378683" y="171.66360856269114" />
              <mxPoint x="106.13404932378683" y="171.66360856269114" />
            </Array>
          </mxGeometry>
        </mxCell>
        <mxCell id="MLBCKs6qhWt3k2Kgl3a6-63" style="edgeStyle=orthogonalEdgeStyle;rounded=0;orthogonalLoop=1;jettySize=auto;html=1;entryX=0.25;entryY=1;entryDx=0;entryDy=0;" parent="6Dqu60EFzSTodjDfhQKl-2" source="MLBCKs6qhWt3k2Kgl3a6-64" target="MLBCKs6qhWt3k2Kgl3a6-59" edge="1">
          <mxGeometry relative="1" as="geometry">
            <Array as="points">
              <mxPoint x="187.47454256165474" y="170.11009174311926" />
              <mxPoint x="187.47454256165474" y="170.11009174311926" />
            </Array>
          </mxGeometry>
        </mxCell>
        <mxCell id="MLBCKs6qhWt3k2Kgl3a6-64" value="&lt;span style=&quot;font-size: 20px;&quot;&gt;PostgreSQL&lt;/span&gt;" style="rounded=0;whiteSpace=wrap;html=1;" parent="6Dqu60EFzSTodjDfhQKl-2" vertex="1">
          <mxGeometry x="15.382259347653132" y="180.20795107033632" width="262.84407319013525" height="57.48012232415902" as="geometry" />
        </mxCell>
        <mxCell id="MLBCKs6qhWt3k2Kgl3a6-58" style="edgeStyle=orthogonalEdgeStyle;rounded=0;orthogonalLoop=1;jettySize=auto;html=1;exitX=0.5;exitY=1;exitDx=0;exitDy=0;entryX=0.75;entryY=0;entryDx=0;entryDy=0;" parent="6Dqu60EFzSTodjDfhQKl-2" edge="1">
          <mxGeometry relative="1" as="geometry">
            <mxPoint x="247.20513922036594" y="154.57492354740066" as="sourcePoint" />
            <mxPoint x="241.99531424025486" y="180.20795107033632" as="targetPoint" />
          </mxGeometry>
        </mxCell>
        <mxCell id="MLBCKs6qhWt3k2Kgl3a6-65" style="edgeStyle=orthogonalEdgeStyle;rounded=0;orthogonalLoop=1;jettySize=auto;html=1;exitX=0.75;exitY=0;exitDx=0;exitDy=0;entryX=0.335;entryY=0.967;entryDx=0;entryDy=0;entryPerimeter=0;" parent="6Dqu60EFzSTodjDfhQKl-2" source="MLBCKs6qhWt3k2Kgl3a6-61" target="MLBCKs6qhWt3k2Kgl3a6-57" edge="1">
          <mxGeometry relative="1" as="geometry" />
        </mxCell>
        <mxCell id="MLBCKs6qhWt3k2Kgl3a6-60" style="edgeStyle=orthogonalEdgeStyle;rounded=0;orthogonalLoop=1;jettySize=auto;html=1;exitX=0.5;exitY=1;exitDx=0;exitDy=0;entryX=0.25;entryY=0;entryDx=0;entryDy=0;" parent="6Dqu60EFzSTodjDfhQKl-2" edge="1">
          <mxGeometry relative="1" as="geometry">
            <mxPoint x="40.003452665075656" y="154.57492354740066" as="sourcePoint" />
            <mxPoint x="45.21327764518696" y="180.20795107033632" as="targetPoint" />
          </mxGeometry>
        </mxCell>
        <mxCell id="MLBCKs6qhWt3k2Kgl3a6-66" style="edgeStyle=orthogonalEdgeStyle;rounded=0;orthogonalLoop=1;jettySize=auto;html=1;exitX=0.25;exitY=0;exitDx=0;exitDy=0;entryX=0.67;entryY=0.967;entryDx=0;entryDy=0;entryPerimeter=0;" parent="6Dqu60EFzSTodjDfhQKl-2" source="MLBCKs6qhWt3k2Kgl3a6-59" target="MLBCKs6qhWt3k2Kgl3a6-57" edge="1">
          <mxGeometry relative="1" as="geometry" />
        </mxCell>
        <mxCell id="MLBCKs6qhWt3k2Kgl3a6-73" style="edgeStyle=orthogonalEdgeStyle;rounded=0;orthogonalLoop=1;jettySize=auto;html=1;exitX=0.75;exitY=1;exitDx=0;exitDy=0;entryX=0.431;entryY=0.026;entryDx=0;entryDy=0;entryPerimeter=0;" parent="6Dqu60EFzSTodjDfhQKl-2" edge="1">
          <mxGeometry relative="1" as="geometry">
            <mxPoint x="241.2774999999997" y="82.33999999999992" as="sourcePoint" />
            <mxPoint x="239.99597454256173" y="109.18116207951084" as="targetPoint" />
          </mxGeometry>
        </mxCell>
        <mxCell id="6Dqu60EFzSTodjDfhQKl-3" value="&lt;font style=&quot;font-size: 18px;&quot;&gt;Server2&lt;/font&gt;" style="rounded=0;whiteSpace=wrap;html=1;verticalAlign=top;" vertex="1" parent="1">
          <mxGeometry x="420.5" y="417" width="321" height="312" as="geometry" />
        </mxCell>
        <mxCell id="6Dqu60EFzSTodjDfhQKl-4" value="" style="group" vertex="1" connectable="0" parent="1">
          <mxGeometry x="434" y="462" width="293" height="254" as="geometry" />
        </mxCell>
        <mxCell id="6Dqu60EFzSTodjDfhQKl-5" value="&lt;font style=&quot;font-size: 18px;&quot;&gt;Docker&lt;/font&gt;" style="rounded=0;whiteSpace=wrap;html=1;strokeWidth=2;verticalAlign=top;" vertex="1" parent="6Dqu60EFzSTodjDfhQKl-4">
          <mxGeometry width="293" height="254" as="geometry" />
        </mxCell>
        <mxCell id="6Dqu60EFzSTodjDfhQKl-6" value="&lt;font style=&quot;font-size: 18px;&quot;&gt;Nginx&lt;/font&gt;" style="rounded=0;whiteSpace=wrap;html=1;" vertex="1" parent="6Dqu60EFzSTodjDfhQKl-4">
          <mxGeometry x="14" y="35.73000000000002" width="262.21" height="46.61" as="geometry" />
        </mxCell>
        <mxCell id="6Dqu60EFzSTodjDfhQKl-7" value="&lt;font style=&quot;font-size: 18px;&quot;&gt;RESTful API Server&lt;/font&gt;" style="rounded=0;whiteSpace=wrap;html=1;" vertex="1" parent="6Dqu60EFzSTodjDfhQKl-4">
          <mxGeometry x="157.2239459029435" y="107.96941896024464" width="121.00238663484487" height="46.60550458715596" as="geometry" />
        </mxCell>
        <mxCell id="6Dqu60EFzSTodjDfhQKl-8" value="&lt;font style=&quot;font-size: 18px;&quot;&gt;AI Server&lt;/font&gt;" style="rounded=0;whiteSpace=wrap;html=1;" vertex="1" parent="6Dqu60EFzSTodjDfhQKl-4">
          <mxGeometry x="15.382259347653132" y="107.96941896024464" width="121.00238663484487" height="46.60550458715596" as="geometry" />
        </mxCell>
        <mxCell id="6Dqu60EFzSTodjDfhQKl-9" style="edgeStyle=orthogonalEdgeStyle;rounded=0;orthogonalLoop=1;jettySize=auto;html=1;exitX=0.119;exitY=1.033;exitDx=0;exitDy=0;entryX=0.25;entryY=0;entryDx=0;entryDy=0;exitPerimeter=0;" edge="1" parent="6Dqu60EFzSTodjDfhQKl-4" source="6Dqu60EFzSTodjDfhQKl-6" target="6Dqu60EFzSTodjDfhQKl-8">
          <mxGeometry relative="1" as="geometry" />
        </mxCell>
        <mxCell id="6Dqu60EFzSTodjDfhQKl-10" style="edgeStyle=orthogonalEdgeStyle;rounded=0;orthogonalLoop=1;jettySize=auto;html=1;entryX=0.75;entryY=1;entryDx=0;entryDy=0;" edge="1" parent="6Dqu60EFzSTodjDfhQKl-4" source="6Dqu60EFzSTodjDfhQKl-12" target="6Dqu60EFzSTodjDfhQKl-8">
          <mxGeometry relative="1" as="geometry">
            <Array as="points">
              <mxPoint x="106.13404932378683" y="171.66360856269114" />
              <mxPoint x="106.13404932378683" y="171.66360856269114" />
            </Array>
          </mxGeometry>
        </mxCell>
        <mxCell id="6Dqu60EFzSTodjDfhQKl-11" style="edgeStyle=orthogonalEdgeStyle;rounded=0;orthogonalLoop=1;jettySize=auto;html=1;entryX=0.25;entryY=1;entryDx=0;entryDy=0;" edge="1" parent="6Dqu60EFzSTodjDfhQKl-4" source="6Dqu60EFzSTodjDfhQKl-12" target="6Dqu60EFzSTodjDfhQKl-7">
          <mxGeometry relative="1" as="geometry">
            <Array as="points">
              <mxPoint x="187.47454256165474" y="170.11009174311926" />
              <mxPoint x="187.47454256165474" y="170.11009174311926" />
            </Array>
          </mxGeometry>
        </mxCell>
        <mxCell id="6Dqu60EFzSTodjDfhQKl-12" value="&lt;span style=&quot;font-size: 20px;&quot;&gt;PostgreSQL&lt;/span&gt;" style="rounded=0;whiteSpace=wrap;html=1;" vertex="1" parent="6Dqu60EFzSTodjDfhQKl-4">
          <mxGeometry x="15.382259347653132" y="180.20795107033632" width="262.84407319013525" height="57.48012232415902" as="geometry" />
        </mxCell>
        <mxCell id="6Dqu60EFzSTodjDfhQKl-13" style="edgeStyle=orthogonalEdgeStyle;rounded=0;orthogonalLoop=1;jettySize=auto;html=1;exitX=0.5;exitY=1;exitDx=0;exitDy=0;entryX=0.75;entryY=0;entryDx=0;entryDy=0;" edge="1" parent="6Dqu60EFzSTodjDfhQKl-4">
          <mxGeometry relative="1" as="geometry">
            <mxPoint x="247.20513922036594" y="154.57492354740066" as="sourcePoint" />
            <mxPoint x="241.99531424025486" y="180.20795107033632" as="targetPoint" />
          </mxGeometry>
        </mxCell>
        <mxCell id="6Dqu60EFzSTodjDfhQKl-14" style="edgeStyle=orthogonalEdgeStyle;rounded=0;orthogonalLoop=1;jettySize=auto;html=1;exitX=0.75;exitY=0;exitDx=0;exitDy=0;entryX=0.335;entryY=0.967;entryDx=0;entryDy=0;entryPerimeter=0;" edge="1" parent="6Dqu60EFzSTodjDfhQKl-4" source="6Dqu60EFzSTodjDfhQKl-8" target="6Dqu60EFzSTodjDfhQKl-6">
          <mxGeometry relative="1" as="geometry" />
        </mxCell>
        <mxCell id="6Dqu60EFzSTodjDfhQKl-15" style="edgeStyle=orthogonalEdgeStyle;rounded=0;orthogonalLoop=1;jettySize=auto;html=1;exitX=0.5;exitY=1;exitDx=0;exitDy=0;entryX=0.25;entryY=0;entryDx=0;entryDy=0;" edge="1" parent="6Dqu60EFzSTodjDfhQKl-4">
          <mxGeometry relative="1" as="geometry">
            <mxPoint x="40.003452665075656" y="154.57492354740066" as="sourcePoint" />
            <mxPoint x="45.21327764518696" y="180.20795107033632" as="targetPoint" />
          </mxGeometry>
        </mxCell>
        <mxCell id="6Dqu60EFzSTodjDfhQKl-16" style="edgeStyle=orthogonalEdgeStyle;rounded=0;orthogonalLoop=1;jettySize=auto;html=1;exitX=0.25;exitY=0;exitDx=0;exitDy=0;entryX=0.67;entryY=0.967;entryDx=0;entryDy=0;entryPerimeter=0;" edge="1" parent="6Dqu60EFzSTodjDfhQKl-4" source="6Dqu60EFzSTodjDfhQKl-7" target="6Dqu60EFzSTodjDfhQKl-6">
          <mxGeometry relative="1" as="geometry" />
        </mxCell>
        <mxCell id="6Dqu60EFzSTodjDfhQKl-17" style="edgeStyle=orthogonalEdgeStyle;rounded=0;orthogonalLoop=1;jettySize=auto;html=1;exitX=0.75;exitY=1;exitDx=0;exitDy=0;entryX=0.431;entryY=0.026;entryDx=0;entryDy=0;entryPerimeter=0;" edge="1" parent="6Dqu60EFzSTodjDfhQKl-4">
          <mxGeometry relative="1" as="geometry">
            <mxPoint x="241.2774999999997" y="82.33999999999992" as="sourcePoint" />
            <mxPoint x="239.99597454256173" y="109.18116207951084" as="targetPoint" />
          </mxGeometry>
        </mxCell>
      </root>
    </mxGraphModel>
  </diagram>
</mxfile>
